<svg width="86" height="40" viewBox="0 0 86 40" fill="none" xmlns="http://www.w3.org/2000/svg">
<g id="achieve-logo-white" clip-path="url(#clip0_3056_4383)">
<path id="Path 253" d="M54.4793 19.0382L63.6967 25.278C63.7839 25.3295 63.8863 25.3485 63.986 25.3315C64.0857 25.3145 64.1762 25.2627 64.2417 25.1851L85.4235 0.118066C85.475 0.0556203 85.5477 0.0147028 85.6275 0.0032642C85.7073 -0.00817442 85.7885 0.0106827 85.8552 0.0561715C85.922 0.10166 85.9696 0.170532 85.9888 0.249404C86.0079 0.328276 85.9973 0.411516 85.959 0.482949L65.4539 39.7311C65.4112 39.8128 65.3468 39.881 65.2678 39.928C65.1889 39.975 65.0986 39.999 65.0069 39.9972C64.9152 39.9955 64.8258 39.9681 64.7487 39.9181C64.6716 39.8681 64.6098 39.7975 64.5702 39.7141L54.3959 19.1156C54.3917 19.1042 54.3909 19.0918 54.3939 19.08C54.3968 19.0682 54.4032 19.0576 54.4123 19.0496C54.4214 19.0416 54.4326 19.0366 54.4446 19.0352C54.4566 19.0338 54.4687 19.0361 54.4793 19.0418V19.0382Z" fill="#23B78D"/>
<path id="Path 254" d="M11.7464 23.7607V32.5098H9.93579V30.3087C9.08355 31.7579 7.43319 32.6439 5.11567 32.6439C1.94663 32.6439 0 30.9802 0 28.5381C0 26.3642 1.38481 24.5391 5.40682 24.5391H9.85386V23.6803C9.85386 21.2655 8.49539 19.9504 5.88525 19.9504C4.18458 19.9276 2.53175 20.5176 1.2246 21.6141L0.372355 20.1915C1.99522 18.909 4.00994 18.2346 6.07179 18.2838C9.69658 18.2845 11.7464 20.1089 11.7464 23.7607ZM9.85606 28.269V25.9618H5.46242C2.74694 25.9618 1.86689 27.035 1.86689 28.4842C1.86689 30.1214 3.17196 31.1379 5.40829 31.1379C6.356 31.1959 7.29751 30.9491 8.09703 30.4331C8.89654 29.9171 9.51275 29.1585 9.85679 28.2668L9.85606 28.269Z" fill="#23B78D"/>
<path id="Path 255" d="M13.3339 25.4489C13.3339 21.2354 16.3697 18.2832 20.5483 18.2832C22.9185 18.2832 24.9163 19.2231 26.0349 21.074L24.6237 22.0404C24.1734 21.3751 23.5641 20.8346 22.852 20.4689C22.1399 20.1032 21.3479 19.9239 20.549 19.9477C17.4861 19.9477 15.2498 22.1473 15.2498 25.4489C15.2498 28.7756 17.4861 30.9494 20.549 30.9494C21.3457 30.9784 22.1367 30.8044 22.8489 30.4436C23.5611 30.0829 24.1715 29.547 24.6237 28.8855L26.04 29.8518C25.4471 30.7594 24.6285 31.4946 23.6659 31.9842C22.7033 32.4739 21.6302 32.7009 20.5534 32.6426C19.601 32.6851 18.6501 32.5288 17.7604 32.1833C16.8708 31.8379 16.0616 31.3109 15.3836 30.6354C14.7057 29.9599 14.1737 29.1505 13.8209 28.258C13.4682 27.3655 13.3024 26.4091 13.3339 25.4489Z" fill="#23B78D"/>
<path id="Path 256" d="M40.0746 24.4559V32.6381H38.1806V24.6446C38.1806 21.6658 36.6363 20.1362 33.9735 20.1362C30.964 20.1362 29.0722 22.0152 29.0722 25.235V32.6403H27.1819V12.7295H29.0693V20.995C30.1073 19.3578 31.9457 18.415 34.3159 18.415C37.7278 18.418 40.0746 20.4046 40.0746 24.4559Z" fill="#23B78D"/>
<path id="Path 257" d="M41.4023 14.0708C41.4106 13.7082 41.5609 13.3637 41.8203 13.1123C42.0798 12.861 42.4273 12.7232 42.7872 12.7292C42.9639 12.7236 43.1399 12.7532 43.3052 12.8163C43.4705 12.8794 43.6219 12.9748 43.7506 13.097C43.8792 13.2192 43.9827 13.3657 44.055 13.5283C44.1273 13.6908 44.167 13.8662 44.172 14.0442C44.1737 14.2275 44.1396 14.4093 44.0716 14.5792C44.0036 14.7492 43.9031 14.904 43.7757 15.0348C43.6483 15.1656 43.4966 15.2699 43.3293 15.3416C43.1619 15.4133 42.9822 15.4512 42.8003 15.4529C42.6185 15.4546 42.4381 15.4203 42.2694 15.3518C42.1007 15.2832 41.9471 15.1819 41.8173 15.0536C41.6875 14.9252 41.584 14.7724 41.5128 14.6038C41.4416 14.4351 41.4041 14.254 41.4023 14.0708ZM41.8281 18.5253H43.7191V32.64H41.8281V18.5253Z" fill="#23B78D"/>
<path id="Path 258" d="M58.2871 26.0386H46.5663C46.7785 28.9871 49.0155 30.9494 52.0785 30.9494C52.8838 30.9745 53.6848 30.822 54.4254 30.5024C55.1661 30.1828 55.8284 29.7038 56.3661 29.0992L57.4341 30.3346C56.7572 31.0967 55.9216 31.6988 54.9871 32.0978C54.0526 32.4969 53.0422 32.6832 52.028 32.6433C47.66 32.6433 44.6782 29.6373 44.6782 25.4518C44.6782 21.2664 47.5809 18.2861 51.5225 18.2861C55.464 18.2861 58.3127 21.2111 58.3127 25.4518C58.3127 25.6103 58.2871 25.8241 58.2871 26.0386ZM46.567 24.6181H56.5029C56.4373 23.3351 55.8853 22.1263 54.9608 21.2415C54.0363 20.3567 52.81 19.8634 51.5349 19.8634C50.2599 19.8634 49.0336 20.3567 48.1091 21.2415C47.1846 22.1263 46.6326 23.3351 46.567 24.6181Z" fill="#23B78D"/>
<path id="Path 259" d="M85.6722 26.0386H73.9544C74.1672 28.9871 76.4043 30.9494 79.4673 30.9494C80.2725 30.9746 81.0734 30.822 81.814 30.5024C82.5545 30.1828 83.2166 29.7039 83.7541 29.0992L84.82 30.3346C84.143 31.0966 83.3075 31.6986 82.373 32.0977C81.4385 32.4968 80.428 32.6831 79.4139 32.6433C75.0458 32.6433 72.0634 29.6373 72.0634 25.4518C72.0634 21.2664 74.9661 18.2861 78.9076 18.2861C82.8492 18.2861 85.6986 21.2111 85.6986 25.4518C85.7008 25.6103 85.6722 25.8241 85.6722 26.0386ZM73.9544 24.6159H83.8872C83.815 23.3379 83.2603 22.1362 82.3368 21.2572C81.4134 20.3781 80.1912 19.8884 78.9208 19.8884C77.6505 19.8884 76.4282 20.3781 75.5048 21.2572C74.5813 22.1362 74.0266 23.3379 73.9544 24.6159Z" fill="#23B78D"/>
</g>
<defs>
<clipPath id="clip0_3056_4383">
<rect width="86" height="40" fill="white"/>
</clipPath>
</defs>
</svg>
