<svg width="18" height="19" viewBox="0 0 18 19" fill="none" xmlns="http://www.w3.org/2000/svg">
<path d="M17.6175 9.70249C17.6175 9.10999 17.565 8.54748 17.475 7.99998H9V11.3825H13.8525C13.635 12.4925 12.9975 13.43 12.0525 14.0675V16.3175H14.9475C16.6425 14.75 17.6175 12.44 17.6175 9.70249Z" fill="#4285F4"/>
<path d="M9.00003 18.5C11.43 18.5 13.4625 17.69 14.9475 16.3175L12.0525 14.0675C11.2425 14.6075 10.215 14.9375 9.00003 14.9375C6.65253 14.9375 4.66503 13.355 3.95253 11.2175H0.967529V13.535C2.44503 16.475 5.48253 18.5 9.00003 18.5Z" fill="#34A853"/>
<path d="M3.9525 11.2176C3.765 10.6776 3.6675 10.1001 3.6675 9.50007C3.6675 8.90007 3.7725 8.32257 3.9525 7.78257V5.46507H0.967499C0.352499 6.68007 0 8.04507 0 9.50007C0 10.9551 0.352499 12.3201 0.967499 13.5351L3.9525 11.2176Z" fill="#FBBC05"/>
<path d="M9.00003 4.06248C10.3275 4.06248 11.5125 4.51999 12.45 5.41249L15.015 2.84749C13.4625 1.39249 11.43 0.499985 9.00003 0.499985C5.48253 0.499985 2.44503 2.52499 0.967529 5.46499L3.95253 7.78249C4.66503 5.64499 6.65253 4.06248 9.00003 4.06248Z" fill="#EA4335"/>
</svg>
