<svg width="19" height="19" viewBox="0 0 19 19" fill="none" xmlns="http://www.w3.org/2000/svg">
<g clip-path="url(#clip0_1958_794)">
<path d="M18.1428 4H15.8806C15.5692 4 15.324 4.24614 15.3361 4.54893L15.5993 11.6986H17.295L18.6089 4.54111C18.6632 4.24418 18.4522 4 18.1428 4ZM16.5878 12.7984H16.3045C15.76 12.7984 15.316 13.2321 15.316 13.7615V14.0369C15.316 14.5663 15.762 15 16.3045 15H16.5878C17.1322 15 17.5762 14.5663 17.5762 14.0369V13.7615C17.5762 13.2321 17.1302 12.7984 16.5878 12.7984ZM7.40015 4C3.65519 4 0.617432 6.46137 0.617432 9.49902C0.617432 12.5367 3.65519 14.998 7.40015 14.998C11.1451 14.998 14.1829 12.5367 14.1829 9.49902C14.1829 6.46137 11.1471 4 7.40015 4ZM11.9246 8.39922H10.6127L8.53128 10.423V11.6986H10.227V12.7984H5.70447V11.6986H7.40015V10.423L4.19162 7.29941H3.44825V6.19961H6.83359V7.29941H6.09022L7.96672 9.12591L8.53128 8.57698V7.30137H11.9226V8.39922H11.9246Z" fill="#5621CB"/>
</g>
<defs>
<clipPath id="clip0_1958_794">
<rect width="18" height="18" fill="white" transform="translate(0.617432 0.5)"/>
</clipPath>
</defs>
</svg>
